<svg xmlns="http://www.w3.org/2000/svg" xmlns:xlink="http://www.w3.org/1999/xlink" width="500" zoomAndPan="magnify" viewBox="0 0 375 374.999991" height="500" preserveAspectRatio="xMidYMid meet" version="1.2"><defs><clipPath id="7f2b333513"><path d="M 12.917969 17.09375 L 194.222656 17.09375 L 194.222656 216.726562 L 12.917969 216.726562 Z M 12.917969 17.09375 "/></clipPath><clipPath id="4465a8918d"><path d="M 103.570312 17.09375 L 194.222656 69.835938 L 194.222656 164.246094 L 103.570312 216.992188 L 12.917969 164.246094 L 12.917969 69.835938 Z M 103.570312 17.09375 "/></clipPath><clipPath id="2017342668"><path d="M 22.472656 27.792969 L 184.277344 27.792969 L 184.277344 206.40625 L 22.472656 206.40625 Z M 22.472656 27.792969 "/></clipPath><clipPath id="6d29adfa56"><path d="M 103.449219 27.792969 L 184.425781 74.90625 L 184.425781 159.242188 L 103.449219 206.355469 L 22.472656 159.242188 L 22.472656 74.90625 Z M 103.449219 27.792969 "/></clipPath><clipPath id="b0e3f7e947"><path d="M 50.082031 103.179688 L 150.925781 103.179688 L 150.925781 165.15625 L 50.082031 165.15625 Z M 50.082031 103.179688 "/></clipPath><clipPath id="4737eb6000"><path d="M 79 93 L 131 93 L 131 121 L 79 121 Z M 79 93 "/></clipPath><clipPath id="75aa231f6d"><path d="M 55.984375 68.933594 L 156.753906 73.339844 L 153.953125 137.371094 L 53.183594 132.964844 Z M 55.984375 68.933594 "/></clipPath><clipPath id="36ee301c80"><path d="M 55.984375 68.933594 L 156.753906 73.339844 L 153.953125 137.371094 L 53.183594 132.964844 Z M 55.984375 68.933594 "/></clipPath><clipPath id="29647292e7"><path d="M 54 71 L 157 71 L 157 110 L 54 110 Z M 54 71 "/></clipPath><clipPath id="bf22107a5c"><path d="M 55.984375 68.933594 L 156.753906 73.339844 L 153.953125 137.371094 L 53.183594 132.964844 Z M 55.984375 68.933594 "/></clipPath><clipPath id="5f2096d574"><path d="M 55.984375 68.933594 L 156.753906 73.339844 L 153.953125 137.371094 L 53.183594 132.964844 Z M 55.984375 68.933594 "/></clipPath><clipPath id="af32d1c92a"><path d="M 65 95 L 69 95 L 69 113 L 65 113 Z M 65 95 "/></clipPath><clipPath id="399d368612"><path d="M 55.984375 68.933594 L 156.753906 73.339844 L 153.953125 137.371094 L 53.183594 132.964844 Z M 55.984375 68.933594 "/></clipPath><clipPath id="e5d265f167"><path d="M 55.984375 68.933594 L 156.753906 73.339844 L 153.953125 137.371094 L 53.183594 132.964844 Z M 55.984375 68.933594 "/></clipPath><clipPath id="e0bc907b92"><path d="M 61 114 L 71 114 L 71 133 L 61 133 Z M 61 114 "/></clipPath><clipPath id="ec10e5880c"><path d="M 55.984375 68.933594 L 156.753906 73.339844 L 153.953125 137.371094 L 53.183594 132.964844 Z M 55.984375 68.933594 "/></clipPath><clipPath id="2dce6c659e"><path d="M 55.984375 68.933594 L 156.753906 73.339844 L 153.953125 137.371094 L 53.183594 132.964844 Z M 55.984375 68.933594 "/></clipPath><clipPath id="f5e20221cd"><path d="M 62 119 L 65 119 L 65 132 L 62 132 Z M 62 119 "/></clipPath><clipPath id="b79b592674"><path d="M 55.984375 68.933594 L 156.753906 73.339844 L 153.953125 137.371094 L 53.183594 132.964844 Z M 55.984375 68.933594 "/></clipPath><clipPath id="d11617265f"><path d="M 55.984375 68.933594 L 156.753906 73.339844 L 153.953125 137.371094 L 53.183594 132.964844 Z M 55.984375 68.933594 "/></clipPath><clipPath id="b5a242c920"><path d="M 65 123 L 68 123 L 68 133 L 65 133 Z M 65 123 "/></clipPath><clipPath id="f75480a513"><path d="M 55.984375 68.933594 L 156.753906 73.339844 L 153.953125 137.371094 L 53.183594 132.964844 Z M 55.984375 68.933594 "/></clipPath><clipPath id="f477f6e2ef"><path d="M 55.984375 68.933594 L 156.753906 73.339844 L 153.953125 137.371094 L 53.183594 132.964844 Z M 55.984375 68.933594 "/></clipPath><clipPath id="dcd3c7394e"><path d="M 68 120 L 70 120 L 70 133 L 68 133 Z M 68 120 "/></clipPath><clipPath id="bbe576c1d0"><path d="M 55.984375 68.933594 L 156.753906 73.339844 L 153.953125 137.371094 L 53.183594 132.964844 Z M 55.984375 68.933594 "/></clipPath><clipPath id="4d47a750ef"><path d="M 55.984375 68.933594 L 156.753906 73.339844 L 153.953125 137.371094 L 53.183594 132.964844 Z M 55.984375 68.933594 "/></clipPath><clipPath id="971ce7497c"><path d="M 64 110 L 70 110 L 70 116 L 64 116 Z M 64 110 "/></clipPath><clipPath id="e074b7bb1b"><path d="M 55.984375 68.933594 L 156.753906 73.339844 L 153.953125 137.371094 L 53.183594 132.964844 Z M 55.984375 68.933594 "/></clipPath><clipPath id="77c1fc949c"><path d="M 55.984375 68.933594 L 156.753906 73.339844 L 153.953125 137.371094 L 53.183594 132.964844 Z M 55.984375 68.933594 "/></clipPath><clipPath id="ccfffd9b5e"><path d="M 156 83 L 318 83 L 318 218 L 156 218 Z M 156 83 "/></clipPath><clipPath id="d3fbe73f10"><path d="M 191.050781 83.367188 L 317.382812 156.304688 L 282.335938 217.007812 L 156.003906 144.070312 Z M 191.050781 83.367188 "/></clipPath><clipPath id="1f73315d60"><path d="M 0 0.199219 L 161.519531 0.199219 L 161.519531 134.121094 L 0 134.121094 Z M 0 0.199219 "/></clipPath><clipPath id="296b7e889f"><path d="M 35.050781 0.367188 L 161.382812 73.304688 L 126.335938 134.007812 L 0.00390625 61.070312 Z M 35.050781 0.367188 "/></clipPath><clipPath id="f5b761095a"><rect x="0" width="162" y="0" height="135"/></clipPath><clipPath id="7e2b9438d2"><path d="M 157 55 L 292 55 L 292 218 L 157 218 Z M 157 55 "/></clipPath><clipPath id="5cdca65a14"><path d="M 218.597656 55.628906 L 291.539062 181.960938 L 230.835938 217.007812 L 157.898438 90.675781 Z M 218.597656 55.628906 "/></clipPath><clipPath id="d53c357ad4"><path d="M 0.679688 0.601562 L 134.601562 0.601562 L 134.601562 162.121094 L 0.679688 162.121094 Z M 0.679688 0.601562 "/></clipPath><clipPath id="6067f9f77f"><path d="M 61.597656 0.628906 L 134.539062 126.960938 L 73.835938 162.007812 L 0.898438 35.675781 Z M 61.597656 0.628906 "/></clipPath><clipPath id="d19b0c8cba"><rect x="0" width="135" y="0" height="163"/></clipPath><clipPath id="2f120073b3"><path d="M 170 79 L 333.839844 79 L 333.839844 155 L 170 155 Z M 170 79 "/></clipPath><clipPath id="a70359f2f4"><rect x="0" width="164" y="0" height="76"/></clipPath><clipPath id="d73af2ed6a"><rect x="0" width="334" y="0" height="235"/></clipPath></defs><g id="4b239e7d6f"><rect x="0" width="375" y="0" height="374.999991" style="fill:#ffffff;fill-opacity:1;stroke:none;"/><rect x="0" width="375" y="0" height="374.999991" style="fill:#ffffff;fill-opacity:1;stroke:none;"/><g transform="matrix(1,0,0,1,0,56)"><g clip-path="url(#d73af2ed6a)"><g clip-rule="nonzero" clip-path="url(#7f2b333513)"><g clip-rule="nonzero" clip-path="url(#4465a8918d)"><path style="fill:none;stroke-width:7.138127;stroke-linecap:butt;stroke-linejoin:miter;stroke:#004e7a;stroke-opacity:1;stroke-miterlimit:4;" d="M 86.277116 -0.00162437 L 172.555513 50.195769 L 172.555513 140.050665 L 86.277116 190.251776 L -0.00128039 140.050665 L -0.00128039 50.195769 Z M 86.277116 -0.00162437 " transform="matrix(1.050696,0,0,1.050696,12.919314,17.095457)"/></g></g><g clip-rule="nonzero" clip-path="url(#2017342668)"><g clip-rule="nonzero" clip-path="url(#6d29adfa56)"><path style="fill:none;stroke-width:2.855251;stroke-linecap:butt;stroke-linejoin:miter;stroke:#004e7a;stroke-opacity:1;stroke-miterlimit:4;" d="M 77.070964 0.00038391 L 154.140433 44.840464 L 154.140433 125.107219 L 77.070964 169.947299 L 0.00149526 125.107219 L 0.00149526 44.840464 Z M 77.070964 0.00038391 " transform="matrix(1.050696,0,0,1.050696,22.471085,27.792565)"/></g></g><g clip-rule="nonzero" clip-path="url(#b0e3f7e947)"><path style=" stroke:none;fill-rule:nonzero;fill:#004e7a;fill-opacity:1;" d="M 88.015625 117.933594 L 95.53125 114.296875 C 96.640625 113.765625 97.933594 113.773438 99.035156 114.316406 L 123.816406 126.621094 C 125.089844 127.253906 125.03125 129.09375 123.710938 129.636719 L 115.285156 133.140625 C 114.148438 133.613281 112.859375 133.566406 111.765625 133.003906 L 87.988281 120.902344 C 86.761719 120.285156 86.78125 118.53125 88.015625 117.933594 M 149.960938 137.207031 L 148.621094 136.804688 L 102.410156 158.726562 C 100.511719 159.625 98.300781 159.613281 96.410156 158.6875 L 56.859375 139.230469 C 56.09375 138.851562 55.617188 138.078125 55.617188 137.226562 L 55.617188 133.324219 C 55.617188 131.695312 57.289062 130.621094 58.769531 131.289062 L 99.5 149.785156 L 150.636719 126.535156 L 103.9375 103.960938 C 101.859375 102.957031 99.441406 102.921875 97.332031 103.867188 L 53.132812 123.660156 C 51.277344 124.492188 50.082031 126.332031 50.082031 128.367188 L 50.082031 139.542969 C 50.082031 141.195312 51.019531 142.695312 52.503906 143.40625 L 96.191406 164.464844 C 98.140625 165.402344 100.410156 165.386719 102.351562 164.421875 L 150.238281 140.519531 C 151.6875 139.796875 151.511719 137.679688 149.960938 137.207031 "/></g><g clip-rule="nonzero" clip-path="url(#4737eb6000)"><g clip-rule="nonzero" clip-path="url(#75aa231f6d)"><g clip-rule="nonzero" clip-path="url(#36ee301c80)"><path style=" stroke:none;fill-rule:nonzero;fill:#004e7a;fill-opacity:1;" d="M 93.789062 110.726562 C 100.96875 110.308594 109.449219 111.234375 116.472656 113.203125 C 120.5625 114.347656 127.105469 116.703125 128.976562 120.402344 C 128.976562 120.195312 128.941406 119.992188 128.871094 119.796875 C 129.113281 117.074219 129.378906 114.125 129.648438 111.101562 C 129.644531 111.101562 129.640625 111.101562 129.636719 111.101562 C 129.851562 108.703125 130.070312 106.257812 130.285156 103.839844 C 130.011719 101.285156 125.449219 98.460938 118.339844 96.453125 C 111.363281 94.480469 102.933594 93.519531 95.789062 93.882812 C 87.90625 94.28125 82.410156 96.207031 80.277344 99.316406 C 80.207031 99.617188 80.054688 100.335938 80.015625 101.054688 C 79.914062 102.8125 79.789062 104.949219 79.652344 107.117188 C 79.640625 107.113281 79.628906 107.109375 79.621094 107.105469 C 79.398438 110.609375 79.210938 113.335938 79.058594 115.089844 C 81.453125 113.085938 85.824219 111.191406 93.789062 110.726562 "/></g></g></g><g clip-rule="nonzero" clip-path="url(#29647292e7)"><g clip-rule="nonzero" clip-path="url(#bf22107a5c)"><g clip-rule="nonzero" clip-path="url(#5f2096d574)"><path style=" stroke:none;fill-rule:nonzero;fill:#004e7a;fill-opacity:1;" d="M 155.585938 96.554688 L 106.109375 71.214844 C 105.917969 71.117188 105.695312 71.105469 105.496094 71.1875 L 55.476562 91.460938 C 55.1875 91.578125 54.988281 91.867188 54.96875 92.195312 C 54.953125 92.527344 55.117188 92.835938 55.394531 92.984375 L 78.09375 105.285156 C 78.179688 103.832031 78.273438 102.277344 78.367188 100.625 C 78.433594 99.492188 78.714844 98.414062 78.726562 98.367188 L 78.765625 98.222656 L 78.84375 98.097656 C 80.523438 95.515625 84.816406 92.320312 95.734375 91.769531 C 103.039062 91.398438 111.65625 92.382812 118.789062 94.394531 C 123.554688 95.742188 131.605469 98.707031 131.964844 103.417969 L 131.972656 103.496094 L 131.964844 103.578125 C 131.800781 105.410156 131.636719 107.253906 131.472656 109.085938 L 155.546875 98.074219 C 155.832031 97.945312 156.015625 97.652344 156.027344 97.324219 C 156.035156 96.996094 155.863281 96.695312 155.585938 96.554688 "/></g></g></g><g clip-rule="nonzero" clip-path="url(#af32d1c92a)"><g clip-rule="nonzero" clip-path="url(#399d368612)"><g clip-rule="nonzero" clip-path="url(#e5d265f167)"><path style=" stroke:none;fill-rule:nonzero;fill:#004e7a;fill-opacity:1;" d="M 67.359375 112.902344 L 65.800781 112.804688 L 66.886719 95.324219 L 68.445312 95.421875 L 67.359375 112.902344 "/></g></g></g><g clip-rule="nonzero" clip-path="url(#e0bc907b92)"><g clip-rule="nonzero" clip-path="url(#ec10e5880c)"><g clip-rule="nonzero" clip-path="url(#2dce6c659e)"><path style=" stroke:none;fill-rule:evenodd;fill:#ffb608;fill-opacity:1;" d="M 65.339844 114.953125 C 62.375 118.609375 61.199219 123.726562 61.398438 129.980469 C 65.242188 133.515625 68.253906 133.53125 70.632812 130.847656 C 71.199219 118.839844 69.695312 112.796875 65.339844 114.953125 "/></g></g></g><g clip-rule="nonzero" clip-path="url(#f5e20221cd)"><g clip-rule="nonzero" clip-path="url(#b79b592674)"><g clip-rule="nonzero" clip-path="url(#d11617265f)"><path style=" stroke:none;fill-rule:evenodd;fill:#163b6d;fill-opacity:1;" d="M 63.925781 131.875 L 64.132812 119.605469 L 62.464844 130.890625 C 62.96875 131.277344 63.453125 131.609375 63.925781 131.875 "/></g></g></g><g clip-rule="nonzero" clip-path="url(#b5a242c920)"><g clip-rule="nonzero" clip-path="url(#f75480a513)"><g clip-rule="nonzero" clip-path="url(#f477f6e2ef)"><path style=" stroke:none;fill-rule:evenodd;fill:#163b6d;fill-opacity:1;" d="M 66.3125 125.226562 L 66.117188 130.433594 L 65.644531 123.597656 L 65.714844 132.285156 C 66.203125 132.453125 66.667969 132.554688 67.109375 132.609375 L 67.15625 132.605469 L 66.3125 125.226562 "/></g></g></g><g clip-rule="nonzero" clip-path="url(#dcd3c7394e)"><g clip-rule="nonzero" clip-path="url(#bbe576c1d0)"><g clip-rule="nonzero" clip-path="url(#4d47a750ef)"><path style=" stroke:none;fill-rule:evenodd;fill:#163b6d;fill-opacity:1;" d="M 68.496094 120.835938 L 68.097656 132.585938 C 68.398438 132.492188 68.699219 132.367188 68.988281 132.207031 L 69.519531 126.542969 L 68.765625 126.125 L 68.496094 120.835938 "/></g></g></g><g clip-rule="nonzero" clip-path="url(#971ce7497c)"><g clip-rule="nonzero" clip-path="url(#e074b7bb1b)"><g clip-rule="nonzero" clip-path="url(#77c1fc949c)"><path style=" stroke:none;fill-rule:evenodd;fill:#163b6d;fill-opacity:1;" d="M 67.253906 110.347656 C 68.867188 110.496094 70.054688 111.855469 69.910156 113.382812 C 69.773438 114.910156 68.347656 116.023438 66.734375 115.878906 C 65.121094 115.722656 63.925781 114.363281 64.070312 112.835938 C 64.214844 111.308594 65.632812 110.195312 67.253906 110.347656 "/></g></g></g><path style="fill:none;stroke-width:3;stroke-linecap:butt;stroke-linejoin:miter;stroke:#ffffff;stroke-opacity:1;stroke-miterlimit:4;" d="M 0.00083124 1.499473 L 30.125841 1.498178 " transform="matrix(1.009089,-0.292747,0.292747,1.009089,75.193008,110.487142)"/><path style="fill:none;stroke-width:3;stroke-linecap:butt;stroke-linejoin:miter;stroke:#ffffff;stroke-opacity:1;stroke-miterlimit:4;" d="M -0.00186945 1.498891 L 30.405062 1.500919 " transform="matrix(0.948621,0.451751,-0.451751,0.948621,105.811711,101.758652)"/><g clip-rule="nonzero" clip-path="url(#ccfffd9b5e)"><g clip-rule="nonzero" clip-path="url(#d3fbe73f10)"><g transform="matrix(1,0,0,1,156,83)"><g id="0f5fcd1205" clip-path="url(#f5b761095a)"><g clip-rule="nonzero" clip-path="url(#1f73315d60)"><g clip-rule="nonzero" clip-path="url(#296b7e889f)"><path style=" stroke:none;fill-rule:nonzero;fill:#ffffff;fill-opacity:1;" d="M 35.050781 0.367188 L 161.433594 73.335938 L 126.386719 134.035156 L 0.00390625 61.070312 Z M 35.050781 0.367188 "/></g></g></g></g></g></g><g clip-rule="nonzero" clip-path="url(#7e2b9438d2)"><g clip-rule="nonzero" clip-path="url(#5cdca65a14)"><g transform="matrix(1,0,0,1,157,55)"><g id="4720136dd6" clip-path="url(#d19b0c8cba)"><g clip-rule="nonzero" clip-path="url(#d53c357ad4)"><g clip-rule="nonzero" clip-path="url(#6067f9f77f)"><path style=" stroke:none;fill-rule:nonzero;fill:#ffffff;fill-opacity:1;" d="M 61.597656 0.628906 L 134.566406 127.011719 L 73.863281 162.058594 L 0.898438 35.675781 Z M 61.597656 0.628906 "/></g></g></g></g></g></g><g clip-rule="nonzero" clip-path="url(#2f120073b3)"><g transform="matrix(1,0,0,1,170,79)"><g id="8532757d18" clip-path="url(#a70359f2f4)"><g style="fill:#004e7a;fill-opacity:1;"><g transform="translate(1.488418, 59.14105)"><path style="stroke:none" d="M 14.171875 0.984375 C 11.546875 -0.328125 9.535156 -2.078125 8.140625 -4.265625 C 6.734375 -6.453125 6.03125 -8.8125 6.03125 -11.34375 L 6.03125 -33.71875 C 5.988281 -34.6875 5.90625 -35.453125 5.78125 -36.015625 C 5.726562 -36.148438 5.671875 -36.28125 5.609375 -36.40625 C 5.546875 -36.539062 5.425781 -36.648438 5.25 -36.734375 C 4.945312 -37.003906 4.332031 -37.140625 3.40625 -37.140625 L 3.015625 -37.140625 C 2.179688 -37.140625 1.523438 -37.359375 1.046875 -37.796875 C 0.921875 -37.878906 0.820312 -37.953125 0.75 -38.015625 C 0.6875 -38.085938 0.617188 -38.175781 0.546875 -38.28125 C 0.484375 -38.394531 0.429688 -38.484375 0.390625 -38.546875 C 0.347656 -38.609375 0.316406 -38.691406 0.296875 -38.796875 C 0.273438 -38.910156 0.253906 -39 0.234375 -39.0625 C 0.210938 -39.132812 0.203125 -39.222656 0.203125 -39.328125 C 0.203125 -39.441406 0.1875 -39.519531 0.15625 -39.5625 C 0.132812 -39.601562 0.125 -39.6875 0.125 -39.8125 C 0.125 -39.945312 0.125 -40.015625 0.125 -40.015625 L 0.125 -40.15625 C 0.125 -40.332031 0.132812 -40.503906 0.15625 -40.671875 C 0.1875 -40.847656 0.222656 -41.015625 0.265625 -41.171875 C 0.304688 -41.328125 0.367188 -41.476562 0.453125 -41.625 C 0.546875 -41.78125 0.632812 -41.945312 0.71875 -42.125 C 0.894531 -42.34375 1.101562 -42.535156 1.34375 -42.703125 C 1.582031 -42.878906 1.84375 -43.007812 2.125 -43.09375 C 2.414062 -43.1875 2.691406 -43.234375 2.953125 -43.234375 L 3.015625 -43.234375 C 5.816406 -43.109375 8.375 -43.046875 10.6875 -43.046875 C 13.3125 -43.046875 16.023438 -43.109375 18.828125 -43.234375 L 18.890625 -43.234375 C 19.160156 -43.234375 19.4375 -43.1875 19.71875 -43.09375 C 20 -43.007812 20.257812 -42.878906 20.5 -42.703125 C 20.738281 -42.535156 20.945312 -42.34375 21.125 -42.125 C 21.34375 -41.8125 21.492188 -41.488281 21.578125 -41.15625 C 21.671875 -40.832031 21.71875 -40.5 21.71875 -40.15625 L 21.71875 -40.015625 C 21.675781 -39.671875 21.640625 -39.421875 21.609375 -39.265625 C 21.585938 -39.109375 21.5 -38.863281 21.34375 -38.53125 C 21.195312 -38.207031 20.992188 -37.9375 20.734375 -37.71875 C 20.253906 -37.332031 19.597656 -37.140625 18.765625 -37.140625 C 17.710938 -37.140625 16.988281 -37.003906 16.59375 -36.734375 C 16.425781 -36.609375 16.296875 -36.5 16.203125 -36.40625 C 16.117188 -36.320312 16.078125 -36.210938 16.078125 -36.078125 C 15.941406 -35.554688 15.851562 -34.769531 15.8125 -33.71875 L 15.8125 -13.25 C 15.8125 -10.582031 16.425781 -8.351562 17.65625 -6.5625 C 18.75 -4.988281 21.066406 -4.203125 24.609375 -4.203125 C 28.148438 -4.203125 30.597656 -4.945312 31.953125 -6.4375 C 33.347656 -8.007812 34.046875 -9.972656 34.046875 -12.328125 L 34.046875 -29.59375 C 34.046875 -32.476562 33.9375 -34.488281 33.71875 -35.625 C 33.675781 -35.925781 33.617188 -36.175781 33.546875 -36.375 C 33.484375 -36.570312 33.410156 -36.691406 33.328125 -36.734375 L 33.265625 -36.8125 C 32.867188 -37.03125 31.992188 -37.140625 30.640625 -37.140625 L 30.25 -37.140625 C 29.894531 -37.140625 29.5625 -37.179688 29.25 -37.265625 C 28.945312 -37.347656 28.65625 -37.5 28.375 -37.71875 C 28.09375 -37.9375 27.875 -38.207031 27.71875 -38.53125 C 27.5625 -38.863281 27.472656 -39.109375 27.453125 -39.265625 C 27.429688 -39.421875 27.398438 -39.671875 27.359375 -40.015625 L 27.359375 -40.15625 C 27.359375 -40.28125 27.359375 -40.394531 27.359375 -40.5 C 27.359375 -40.613281 27.367188 -40.722656 27.390625 -40.828125 C 27.410156 -40.941406 27.441406 -41.050781 27.484375 -41.15625 C 27.535156 -41.269531 27.582031 -41.378906 27.625 -41.484375 C 27.664062 -41.597656 27.707031 -41.707031 27.75 -41.8125 C 27.789062 -41.925781 27.859375 -42.03125 27.953125 -42.125 C 28.210938 -42.46875 28.539062 -42.738281 28.9375 -42.9375 C 29.332031 -43.132812 29.75 -43.234375 30.1875 -43.234375 L 30.25 -43.234375 C 31.644531 -43.148438 32.953125 -43.097656 34.171875 -43.078125 C 35.398438 -43.054688 36.519531 -43.046875 37.53125 -43.046875 C 38.050781 -43.046875 38.582031 -43.046875 39.125 -43.046875 C 39.675781 -43.046875 40.257812 -43.054688 40.875 -43.078125 C 41.488281 -43.097656 42.125 -43.117188 42.78125 -43.140625 C 43.4375 -43.160156 44.113281 -43.191406 44.8125 -43.234375 L 44.875 -43.234375 C 45.832031 -43.234375 46.578125 -42.863281 47.109375 -42.125 C 47.503906 -41.550781 47.703125 -40.894531 47.703125 -40.15625 L 47.703125 -40.015625 C 47.609375 -38.921875 47.28125 -38.15625 46.71875 -37.71875 C 46.40625 -37.457031 46.097656 -37.296875 45.796875 -37.234375 C 45.492188 -37.171875 45.144531 -37.140625 44.75 -37.140625 C 43.21875 -37.140625 42.234375 -37.03125 41.796875 -36.8125 C 41.753906 -36.8125 41.71875 -36.796875 41.6875 -36.765625 C 41.664062 -36.742188 41.613281 -36.644531 41.53125 -36.46875 C 41.445312 -36.300781 41.378906 -36.0625 41.328125 -35.75 C 41.242188 -35.3125 41.164062 -34.585938 41.09375 -33.578125 C 41.03125 -32.578125 41 -31.378906 41 -29.984375 L 41 -11.671875 C 41 -10.578125 40.898438 -9.535156 40.703125 -8.546875 C 40.515625 -7.566406 40.210938 -6.640625 39.796875 -5.765625 C 39.378906 -4.898438 38.84375 -4.09375 38.1875 -3.34375 C 36.394531 -1.15625 34.140625 0.4375 31.421875 1.4375 C 28.847656 2.445312 26.222656 2.953125 23.546875 2.953125 C 19.921875 2.953125 16.796875 2.296875 14.171875 0.984375 Z M 14.171875 0.984375 "/></g></g><g style="fill:#004e7a;fill-opacity:1;"><g transform="translate(48.731507, 59.14105)"><path style="stroke:none" d="M 5.96875 0.265625 C 3.039062 -1.660156 1.578125 -4.460938 1.578125 -8.140625 C 1.578125 -10.191406 2.273438 -11.894531 3.671875 -13.25 C 5.078125 -14.5625 6.867188 -15.21875 9.046875 -15.21875 C 9.484375 -15.21875 9.890625 -15.171875 10.265625 -15.078125 C 10.640625 -14.992188 11.007812 -14.863281 11.375 -14.6875 C 11.75 -14.519531 12.066406 -14.304688 12.328125 -14.046875 C 12.765625 -13.691406 13.101562 -13.316406 13.34375 -12.921875 C 13.59375 -12.523438 13.71875 -12.066406 13.71875 -11.546875 C 13.71875 -11.285156 13.691406 -11.046875 13.640625 -10.828125 C 13.597656 -10.609375 13.53125 -10.429688 13.4375 -10.296875 C 13.351562 -10.171875 13.253906 -10.0625 13.140625 -9.96875 C 13.035156 -9.882812 12.925781 -9.832031 12.8125 -9.8125 C 12.707031 -9.789062 12.625 -9.765625 12.5625 -9.734375 C 12.5 -9.710938 12.429688 -9.703125 12.359375 -9.703125 C 12.296875 -9.703125 12.265625 -9.703125 12.265625 -9.703125 C 12.046875 -9.535156 11.828125 -9.296875 11.609375 -8.984375 C 11.429688 -8.722656 11.34375 -8.304688 11.34375 -7.734375 C 11.34375 -6.160156 11.78125 -4.984375 12.65625 -4.203125 C 13.625 -3.367188 15.203125 -2.953125 17.390625 -2.953125 C 18.921875 -2.953125 20.253906 -3.238281 21.390625 -3.8125 C 22.441406 -4.375 23.25 -5.113281 23.8125 -6.03125 C 24.382812 -6.90625 24.671875 -7.828125 24.671875 -8.796875 C 24.671875 -9.972656 24.34375 -11 23.6875 -11.875 C 22.894531 -12.832031 21.929688 -13.640625 20.796875 -14.296875 C 20.179688 -14.648438 19.4375 -15.046875 18.5625 -15.484375 C 17.6875 -15.921875 16.703125 -16.378906 15.609375 -16.859375 C 12.898438 -18.085938 10.710938 -19.203125 9.046875 -20.203125 C 7.253906 -21.253906 5.726562 -22.675781 4.46875 -24.46875 C 3.101562 -26.351562 2.421875 -28.648438 2.421875 -31.359375 C 2.421875 -33.503906 2.800781 -35.40625 3.5625 -37.0625 C 4.332031 -38.726562 5.484375 -40.109375 7.015625 -41.203125 C 8.460938 -42.253906 10.125 -43.039062 12 -43.5625 C 13.882812 -44.09375 15.960938 -44.359375 18.234375 -44.359375 C 21.867188 -44.359375 25.039062 -43.59375 27.75 -42.0625 C 30.769531 -40.351562 32.28125 -37.8125 32.28125 -34.4375 C 32.28125 -32.382812 31.582031 -30.679688 30.1875 -29.328125 C 29.695312 -28.890625 29.164062 -28.523438 28.59375 -28.234375 C 28.03125 -27.953125 27.441406 -27.734375 26.828125 -27.578125 C 26.222656 -27.429688 25.546875 -27.359375 24.796875 -27.359375 C 23.398438 -27.398438 22.304688 -27.796875 21.515625 -28.546875 C 20.597656 -29.328125 20.140625 -30.15625 20.140625 -31.03125 C 20.140625 -31.6875 20.289062 -32.175781 20.59375 -32.5 C 20.90625 -32.832031 21.210938 -33 21.515625 -33 L 21.984375 -33 C 22.367188 -33.175781 22.71875 -33.414062 23.03125 -33.71875 C 23.207031 -33.9375 23.296875 -34.3125 23.296875 -34.84375 C 23.296875 -35.40625 23.195312 -35.882812 23 -36.28125 C 22.800781 -36.675781 22.503906 -37.023438 22.109375 -37.328125 C 21.628906 -37.679688 21.082031 -37.941406 20.46875 -38.109375 C 19.851562 -38.285156 19.132812 -38.375 18.3125 -38.375 C 17.125 -38.375 16.125 -38.242188 15.3125 -37.984375 C 14.507812 -37.722656 13.84375 -37.375 13.3125 -36.9375 C 12.789062 -36.457031 12.410156 -35.941406 12.171875 -35.390625 C 11.929688 -34.847656 11.8125 -34.226562 11.8125 -33.53125 C 11.8125 -32.394531 12.09375 -31.453125 12.65625 -30.703125 C 13.363281 -29.867188 14.546875 -28.992188 16.203125 -28.078125 C 16.679688 -27.816406 17.171875 -27.566406 17.671875 -27.328125 C 18.179688 -27.085938 18.707031 -26.832031 19.25 -26.5625 C 19.800781 -26.300781 20.359375 -26.039062 20.921875 -25.78125 C 22.367188 -25.125 23.660156 -24.5 24.796875 -23.90625 C 25.929688 -23.320312 26.9375 -22.742188 27.8125 -22.171875 C 29.65625 -20.992188 31.1875 -19.460938 32.40625 -17.578125 C 33.71875 -15.566406 34.375 -13.140625 34.375 -10.296875 C 34.375 -7.722656 33.566406 -5.40625 31.953125 -3.34375 C 30.421875 -1.375 28.34375 0.175781 25.71875 1.3125 C 23.445312 2.320312 20.953125 2.867188 18.234375 2.953125 C 17.972656 2.953125 17.691406 2.953125 17.390625 2.953125 C 12.484375 2.953125 8.675781 2.054688 5.96875 0.265625 Z M 5.96875 0.265625 "/></g></g><g style="fill:#004e7a;fill-opacity:1;"><g transform="translate(84.491912, 59.14105)"><path style="stroke:none" d="M -1.84375 0.71875 C -2.226562 0.15625 -2.421875 -0.5 -2.421875 -1.25 L -2.421875 -1.375 C -2.421875 -1.375 -2.421875 -1.421875 -2.421875 -1.515625 C -2.335938 -2.648438 -1.945312 -3.414062 -1.25 -3.8125 C -0.769531 -4.113281 -0.222656 -4.265625 0.390625 -4.265625 L 0.984375 -4.265625 C 1.816406 -4.265625 2.363281 -4.414062 2.625 -4.71875 C 3.144531 -5.289062 3.5625 -5.90625 3.875 -6.5625 C 3.914062 -6.738281 3.96875 -6.890625 4.03125 -7.015625 C 4.101562 -7.148438 4.160156 -7.269531 4.203125 -7.375 C 4.242188 -7.488281 4.285156 -7.585938 4.328125 -7.671875 C 4.367188 -7.765625 4.398438 -7.851562 4.421875 -7.9375 C 4.453125 -8.019531 4.488281 -8.09375 4.53125 -8.15625 C 4.570312 -8.226562 4.59375 -8.285156 4.59375 -8.328125 L 6.171875 -12.078125 L 16.078125 -35.5 C 16.253906 -35.9375 16.34375 -36.238281 16.34375 -36.40625 L 16.265625 -36.671875 C 15.785156 -36.929688 15.085938 -37.148438 14.171875 -37.328125 C 13.210938 -37.503906 12.535156 -37.742188 12.140625 -38.046875 C 11.523438 -38.535156 11.21875 -39.347656 11.21875 -40.484375 C 11.21875 -41.617188 11.613281 -42.425781 12.40625 -42.90625 C 12.96875 -43.257812 13.707031 -43.4375 14.625 -43.4375 C 15.414062 -43.4375 16.140625 -43.410156 16.796875 -43.359375 C 17.453125 -43.316406 18.0625 -43.265625 18.625 -43.203125 C 19.195312 -43.140625 19.742188 -43.039062 20.265625 -42.90625 C 21.847656 -42.46875 23.226562 -41.660156 24.40625 -40.484375 C 25.5 -39.347656 26.503906 -37.660156 27.421875 -35.421875 L 38.453125 -8.265625 C 39.054688 -6.734375 39.625 -5.617188 40.15625 -4.921875 C 40.332031 -4.703125 40.53125 -4.535156 40.75 -4.421875 C 40.96875 -4.316406 41.25 -4.265625 41.59375 -4.265625 L 41.984375 -4.265625 C 42.816406 -4.265625 43.472656 -4.046875 43.953125 -3.609375 C 44.046875 -3.566406 44.132812 -3.5 44.21875 -3.40625 C 44.3125 -3.320312 44.378906 -3.242188 44.421875 -3.171875 C 44.460938 -3.109375 44.503906 -3.035156 44.546875 -2.953125 C 44.585938 -2.867188 44.617188 -2.789062 44.640625 -2.71875 C 44.671875 -2.65625 44.695312 -2.566406 44.71875 -2.453125 C 44.738281 -2.347656 44.757812 -2.273438 44.78125 -2.234375 C 44.800781 -2.191406 44.8125 -2.113281 44.8125 -2 C 44.8125 -1.894531 44.820312 -1.816406 44.84375 -1.765625 C 44.863281 -1.722656 44.875 -1.65625 44.875 -1.5625 C 44.875 -1.476562 44.875 -1.414062 44.875 -1.375 L 44.875 -1.25 C 44.875 -0.5 44.675781 0.15625 44.28125 0.71875 C 44.113281 0.9375 43.90625 1.132812 43.65625 1.3125 C 43.414062 1.488281 43.15625 1.617188 42.875 1.703125 C 42.59375 1.796875 42.320312 1.84375 42.0625 1.84375 L 41.984375 1.84375 C 39.191406 1.707031 36.8125 1.640625 34.84375 1.640625 C 32.257812 1.640625 29.566406 1.707031 26.765625 1.84375 L 26.703125 1.84375 C 26.441406 1.84375 26.164062 1.796875 25.875 1.703125 C 25.59375 1.617188 25.332031 1.488281 25.09375 1.3125 C 24.851562 1.132812 24.644531 0.9375 24.46875 0.71875 C 24.25 0.414062 24.09375 0.101562 24 -0.21875 C 23.914062 -0.550781 23.875 -0.894531 23.875 -1.25 L 23.875 -1.375 C 23.96875 -2.425781 24.273438 -3.171875 24.796875 -3.609375 C 25.273438 -4.046875 25.929688 -4.265625 26.765625 -4.265625 C 27.953125 -4.265625 28.765625 -4.351562 29.203125 -4.53125 C 29.203125 -4.570312 29.203125 -4.59375 29.203125 -4.59375 C 29.203125 -4.632812 29.175781 -4.765625 29.125 -4.984375 C 29.082031 -5.203125 29.003906 -5.507812 28.890625 -5.90625 C 28.785156 -6.300781 28.671875 -6.691406 28.546875 -7.078125 L 26.703125 -11.484375 L 12.734375 -11.484375 C 12.296875 -10.429688 11.96875 -9.597656 11.75 -8.984375 C 11.476562 -8.421875 11.320312 -8.050781 11.28125 -7.875 C 11.238281 -7.78125 11.195312 -7.648438 11.15625 -7.484375 C 11.15625 -7.390625 11.144531 -7.320312 11.125 -7.28125 C 11.101562 -7.238281 11.09375 -7.195312 11.09375 -7.15625 C 10.875 -6.539062 10.695312 -5.976562 10.5625 -5.46875 C 10.425781 -4.96875 10.359375 -4.65625 10.359375 -4.53125 C 10.929688 -4.351562 11.960938 -4.265625 13.453125 -4.265625 L 13.84375 -4.265625 C 14.675781 -4.265625 15.332031 -4.046875 15.8125 -3.609375 C 16.332031 -3.171875 16.640625 -2.425781 16.734375 -1.375 L 16.734375 -1.25 C 16.734375 -0.5 16.535156 0.15625 16.140625 0.71875 C 15.878906 1.070312 15.550781 1.347656 15.15625 1.546875 C 14.757812 1.742188 14.34375 1.84375 13.90625 1.84375 L 13.84375 1.84375 C 12.445312 1.75 11.15625 1.691406 9.96875 1.671875 C 8.789062 1.648438 7.71875 1.640625 6.75 1.640625 C 5.394531 1.640625 3.296875 1.707031 0.453125 1.84375 L 0.390625 1.84375 C -0.566406 1.84375 -1.3125 1.46875 -1.84375 0.71875 Z M 15.28125 -17.578125 L 24.203125 -17.578125 L 19.875 -28.671875 Z M 15.28125 -17.578125 "/></g></g><g style="fill:#004e7a;fill-opacity:1;"><g transform="translate(127.33877, 59.14105)"><path style="stroke:none" d="M 5.96875 0.265625 C 3.039062 -1.660156 1.578125 -4.460938 1.578125 -8.140625 C 1.578125 -10.191406 2.273438 -11.894531 3.671875 -13.25 C 5.078125 -14.5625 6.867188 -15.21875 9.046875 -15.21875 C 9.484375 -15.21875 9.890625 -15.171875 10.265625 -15.078125 C 10.640625 -14.992188 11.007812 -14.863281 11.375 -14.6875 C 11.75 -14.519531 12.066406 -14.304688 12.328125 -14.046875 C 12.765625 -13.691406 13.101562 -13.316406 13.34375 -12.921875 C 13.59375 -12.523438 13.71875 -12.066406 13.71875 -11.546875 C 13.71875 -11.285156 13.691406 -11.046875 13.640625 -10.828125 C 13.597656 -10.609375 13.53125 -10.429688 13.4375 -10.296875 C 13.351562 -10.171875 13.253906 -10.0625 13.140625 -9.96875 C 13.035156 -9.882812 12.925781 -9.832031 12.8125 -9.8125 C 12.707031 -9.789062 12.625 -9.765625 12.5625 -9.734375 C 12.5 -9.710938 12.429688 -9.703125 12.359375 -9.703125 C 12.296875 -9.703125 12.265625 -9.703125 12.265625 -9.703125 C 12.046875 -9.535156 11.828125 -9.296875 11.609375 -8.984375 C 11.429688 -8.722656 11.34375 -8.304688 11.34375 -7.734375 C 11.34375 -6.160156 11.78125 -4.984375 12.65625 -4.203125 C 13.625 -3.367188 15.203125 -2.953125 17.390625 -2.953125 C 18.921875 -2.953125 20.253906 -3.238281 21.390625 -3.8125 C 22.441406 -4.375 23.25 -5.113281 23.8125 -6.03125 C 24.382812 -6.90625 24.671875 -7.828125 24.671875 -8.796875 C 24.671875 -9.972656 24.34375 -11 23.6875 -11.875 C 22.894531 -12.832031 21.929688 -13.640625 20.796875 -14.296875 C 20.179688 -14.648438 19.4375 -15.046875 18.5625 -15.484375 C 17.6875 -15.921875 16.703125 -16.378906 15.609375 -16.859375 C 12.898438 -18.085938 10.710938 -19.203125 9.046875 -20.203125 C 7.253906 -21.253906 5.726562 -22.675781 4.46875 -24.46875 C 3.101562 -26.351562 2.421875 -28.648438 2.421875 -31.359375 C 2.421875 -33.503906 2.800781 -35.40625 3.5625 -37.0625 C 4.332031 -38.726562 5.484375 -40.109375 7.015625 -41.203125 C 8.460938 -42.253906 10.125 -43.039062 12 -43.5625 C 13.882812 -44.09375 15.960938 -44.359375 18.234375 -44.359375 C 21.867188 -44.359375 25.039062 -43.59375 27.75 -42.0625 C 30.769531 -40.351562 32.28125 -37.8125 32.28125 -34.4375 C 32.28125 -32.382812 31.582031 -30.679688 30.1875 -29.328125 C 29.695312 -28.890625 29.164062 -28.523438 28.59375 -28.234375 C 28.03125 -27.953125 27.441406 -27.734375 26.828125 -27.578125 C 26.222656 -27.429688 25.546875 -27.359375 24.796875 -27.359375 C 23.398438 -27.398438 22.304688 -27.796875 21.515625 -28.546875 C 20.597656 -29.328125 20.140625 -30.15625 20.140625 -31.03125 C 20.140625 -31.6875 20.289062 -32.175781 20.59375 -32.5 C 20.90625 -32.832031 21.210938 -33 21.515625 -33 L 21.984375 -33 C 22.367188 -33.175781 22.71875 -33.414062 23.03125 -33.71875 C 23.207031 -33.9375 23.296875 -34.3125 23.296875 -34.84375 C 23.296875 -35.40625 23.195312 -35.882812 23 -36.28125 C 22.800781 -36.675781 22.503906 -37.023438 22.109375 -37.328125 C 21.628906 -37.679688 21.082031 -37.941406 20.46875 -38.109375 C 19.851562 -38.285156 19.132812 -38.375 18.3125 -38.375 C 17.125 -38.375 16.125 -38.242188 15.3125 -37.984375 C 14.507812 -37.722656 13.84375 -37.375 13.3125 -36.9375 C 12.789062 -36.457031 12.410156 -35.941406 12.171875 -35.390625 C 11.929688 -34.847656 11.8125 -34.226562 11.8125 -33.53125 C 11.8125 -32.394531 12.09375 -31.453125 12.65625 -30.703125 C 13.363281 -29.867188 14.546875 -28.992188 16.203125 -28.078125 C 16.679688 -27.816406 17.171875 -27.566406 17.671875 -27.328125 C 18.179688 -27.085938 18.707031 -26.832031 19.25 -26.5625 C 19.800781 -26.300781 20.359375 -26.039062 20.921875 -25.78125 C 22.367188 -25.125 23.660156 -24.5 24.796875 -23.90625 C 25.929688 -23.320312 26.9375 -22.742188 27.8125 -22.171875 C 29.65625 -20.992188 31.1875 -19.460938 32.40625 -17.578125 C 33.71875 -15.566406 34.375 -13.140625 34.375 -10.296875 C 34.375 -7.722656 33.566406 -5.40625 31.953125 -3.34375 C 30.421875 -1.375 28.34375 0.175781 25.71875 1.3125 C 23.445312 2.320312 20.953125 2.867188 18.234375 2.953125 C 17.972656 2.953125 17.691406 2.953125 17.390625 2.953125 C 12.484375 2.953125 8.675781 2.054688 5.96875 0.265625 Z M 5.96875 0.265625 "/></g></g></g></g></g></g></g></g></svg>