<svg width="30" height="32" viewBox="0 0 30 32" fill="none" xmlns="http://www.w3.org/2000/svg">
<path d="M6.7742 18.4667H18.3871V20.7333H6.7742V18.4667ZM6.7742 12.8H24.1936V15.0667H6.7742V12.8ZM6.7742 24.1333H14.0323V26.4H6.7742V24.1333Z" fill="#396EB5"/>
<path d="M27.2727 3.42857H23.1818V2.28571C23.1818 1.67951 22.8945 1.09812 22.383 0.66947C21.8716 0.240816 21.1779 0 20.4545 0H9.54545C8.82214 0 8.12844 0.240816 7.61698 0.66947C7.10552 1.09812 6.81818 1.67951 6.81818 2.28571V3.42857H2.72727C2.00396 3.42857 1.31026 3.66939 0.7988 4.09804C0.287337 4.5267 0 5.10808 0 5.71429V29.7143C0 30.3205 0.287337 30.9019 0.7988 31.3305C1.31026 31.7592 2.00396 32 2.72727 32H27.2727C27.996 32 28.6897 31.7592 29.2012 31.3305C29.7127 30.9019 30 30.3205 30 29.7143V5.71429C30 5.10808 29.7127 4.5267 29.2012 4.09804C28.6897 3.66939 27.996 3.42857 27.2727 3.42857ZM9.54545 2.28571H20.4545V6.85714H9.54545V2.28571ZM27.2727 29.7143H2.72727V5.71429H6.81818V9.14286H23.1818V5.71429H27.2727V29.7143Z" fill="#396EB5"/>
</svg>
