<svg width="151" height="151" viewBox="0 0 151 151" fill="none" xmlns="http://www.w3.org/2000/svg">
<path d="M97.3899 29.7611C97.3899 29.7611 81.3457 50.0838 55.6749 37.9615C30.0042 25.8392 4.33331 58.6408 26.4387 78.6069C48.5442 98.573 26.9124 109.544 41.9299 121.781C58.9983 135.689 73.8584 107.487 87.4068 113.904C117.309 128.068 139.461 122.461 134.47 106.06C125.708 77.271 114.504 75.3981 123.061 60.4235C131.618 45.4488 112.732 14.3129 97.3899 29.7611Z" fill="#DEE9FF"/>
<path d="M88.6549 85.9675L87.3874 92.7726L81.35 125.122L70.4747 123.091L77.4479 85.7221L77.7794 83.9414L88.6549 85.9675Z" fill="#699CFF"/>
<path d="M115.438 69.6942L111.688 89.7987C111.677 89.8576 111.655 89.9138 111.622 89.964C111.59 90.0143 111.547 90.0576 111.498 90.0914C111.448 90.1253 111.393 90.1491 111.334 90.1615C111.275 90.1739 111.215 90.1746 111.156 90.1635L58.4712 80.3373L64.6722 47.0898L104.679 54.5516C111.93 55.9037 116.746 62.6819 115.438 69.6942Z" fill="#A2BDFF"/>
<path d="M75.9251 62.9465L72.2044 82.895L44.55 77.7372L48.2706 57.7887C49.6404 50.444 56.9418 45.6444 64.5782 47.0686C72.2147 48.4929 77.2949 55.6017 75.9251 62.9465Z" fill="#699CFF"/>
<path d="M88.7994 72.2708C86.7615 71.8907 85.4169 69.9101 85.8007 67.8533C86.1845 65.7965 88.1524 64.4333 90.1903 64.8137C90.8399 64.9357 91.4457 65.2276 91.9459 65.6597C92.4461 66.0918 92.8229 66.6487 93.0381 67.2737L118.78 72.0749L118.085 75.8036L92.3427 71.0024C91.9167 71.5079 91.3645 71.8916 90.7421 72.1144C90.1197 72.3372 89.4494 72.3912 88.7994 72.2708V72.2708Z" fill="#418DF9"/>
<path d="M75.0076 63.3141L71.3826 82.7499L45.3311 77.891L48.9564 58.4551C50.291 51.2992 57.205 46.5856 64.3989 47.9274C71.5927 49.2691 76.3422 56.1581 75.0076 63.3141Z" fill="#418DF9"/>
<path d="M89.5294 70.3888C90.5768 70.3888 91.4259 69.5397 91.4259 68.4922C91.4259 67.4448 90.5768 66.5957 89.5294 66.5957C88.482 66.5957 87.6329 67.4448 87.6329 68.4922C87.6329 69.5397 88.482 70.3888 89.5294 70.3888Z" fill="white"/>
<path d="M119.078 72.0625L116.804 84.2544C116.794 84.3069 116.764 84.3534 116.72 84.3836C116.676 84.4138 116.622 84.4252 116.569 84.4154L110.592 83.3006C110.581 83.2986 110.572 83.2926 110.566 83.284C110.56 83.2753 110.558 83.2645 110.56 83.2542L112.863 70.9034C112.865 70.8931 112.871 70.8839 112.88 70.8779C112.889 70.872 112.899 70.8697 112.91 70.8716L119.046 72.0161C119.056 72.0181 119.066 72.0241 119.072 72.0328C119.078 72.0414 119.08 72.0522 119.078 72.0625V72.0625Z" fill="#699CFF"/>
<path d="M53.9522 70.9161C54.2039 72.7677 56.2358 74.9686 56.2358 74.9686C53.1396 75.1881 51.4629 73.4371 50.7414 72.3732C49.8493 72.6309 48.9325 72.7936 48.0063 72.8586C41.6499 73.3091 36.1781 69.1593 35.7829 63.585C35.3877 58.0107 40.2196 53.1304 46.5759 52.6799C52.9322 52.2295 58.4037 56.3791 58.7988 61.9535C59.0558 65.5793 57.0993 68.9121 53.9522 70.9161Z" fill="white"/>
<path d="M72.2312 82.9068C71.9434 83.6354 66.6795 105.34 49.6457 102.163C30.967 99.0008 44.4777 77.7305 44.4777 77.7305L72.2312 82.9068Z" fill="#A2BDFF"/>
<path d="M47.2907 64.6803C48.1635 64.6803 48.8711 63.9728 48.8711 63.0999C48.8711 62.2271 48.1635 61.5195 47.2907 61.5195C46.4179 61.5195 45.7103 62.2271 45.7103 63.0999C45.7103 63.9728 46.4179 64.6803 47.2907 64.6803Z" fill="#699CFF"/>
<path d="M40.2156 63.9924C41.0937 63.9924 41.8055 63.2805 41.8055 62.4024C41.8055 61.5243 41.0937 60.8125 40.2156 60.8125C39.3375 60.8125 38.6256 61.5243 38.6256 62.4024C38.6256 63.2805 39.3375 63.9924 40.2156 63.9924Z" fill="#699CFF"/>
<path d="M54.2982 65.3537C55.1763 65.3537 55.8881 64.6418 55.8881 63.7638C55.8881 62.8857 55.1763 62.1738 54.2982 62.1738C53.4201 62.1738 52.7082 62.8857 52.7082 63.7638C52.7082 64.6418 53.4201 65.3537 54.2982 65.3537Z" fill="#699CFF"/>
<path d="M88.6549 85.9675L87.3874 92.7726L77.4479 85.7221L77.7795 83.9414L88.6549 85.9675Z" fill="#418DF9"/>
</svg>
