<svg width="94" height="114" viewBox="0 0 94 114" fill="none" xmlns="http://www.w3.org/2000/svg">
<g opacity="0.5">
<path opacity="0.5" d="M6.13154 83.5269C5.50235 82.8642 4.64208 82.4693 3.72939 82.4243C2.8167 82.3792 1.92172 82.6874 1.23031 83.2849C0.538894 83.8823 0.104176 84.7232 0.0164316 85.6328C-0.0713128 86.5423 0.19466 87.4508 0.759114 88.1694L5.40163 93.5418L10.7741 88.8993C11.1521 88.6024 11.466 88.2318 11.6967 87.81C11.9275 87.3883 12.0702 86.9241 12.1164 86.4456C12.1625 85.9671 12.1111 85.4841 11.9653 85.0261C11.8194 84.568 11.5822 84.1442 11.2679 83.7805C10.9535 83.4167 10.5687 83.1206 10.1366 82.9098C9.70448 82.6991 9.23413 82.5782 8.75397 82.5545C8.27381 82.5308 7.79384 82.6048 7.34309 82.7719C6.89233 82.939 6.48017 83.1959 6.13154 83.5269Z" fill="#5ECE7B"/>
<path opacity="0.2" d="M1.68754 83.877C2.04044 83.5715 2.45008 83.3384 2.89306 83.1912C3.33604 83.0439 3.80369 82.9854 4.26929 83.019C4.7349 83.0525 5.18933 83.1774 5.60665 83.3866C6.02396 83.5958 6.39598 83.8851 6.70146 84.2381C7.37273 83.6573 8.23703 83.3488 9.12434 83.3731C10.0116 83.3975 10.8577 83.7529 11.4961 84.3696C11.228 83.9278 10.8666 83.5499 10.4372 83.2622C10.0079 82.9745 9.52095 82.784 9.01037 82.7039C8.49978 82.6238 7.97788 82.6562 7.48108 82.7987C6.98429 82.9411 6.52458 83.1903 6.13404 83.5288C5.50485 82.8661 4.64458 82.4713 3.73189 82.4262C2.8192 82.3811 1.92423 82.6893 1.23281 83.2868C0.541397 83.8843 0.106679 84.7251 0.0189342 85.6347C-0.0688102 86.5443 0.197159 87.4527 0.761612 88.1713L1.01953 88.4834C0.558244 87.7637 0.371864 86.9017 0.494556 86.0557C0.617249 85.2096 1.0408 84.4361 1.68754 83.877Z" fill="white"/>
</g>
<g opacity="0.5">
<path opacity="0.5" d="M38.6891 102.215C37.9098 101.737 36.9767 101.579 36.0834 101.771C35.1902 101.964 34.4054 102.493 33.8922 103.249C33.379 104.006 33.1767 104.93 33.3274 105.832C33.4781 106.733 33.9701 107.541 34.7013 108.09L40.5761 112.077L44.5639 106.202C44.8522 105.818 45.0595 105.379 45.1732 104.912C45.2869 104.444 45.3047 103.959 45.2254 103.485C45.1462 103.011 44.9715 102.558 44.7121 102.153C44.4526 101.748 44.1138 101.4 43.716 101.13C43.3183 100.86 42.8699 100.674 42.398 100.582C41.926 100.49 41.4404 100.495 40.9705 100.597C40.5006 100.698 40.0561 100.894 39.664 101.172C39.2718 101.45 38.9402 101.805 38.6891 102.215Z" fill="#5ECE7B"/>
<path opacity="0.2" d="M34.4873 103.704C34.7491 103.317 35.0845 102.986 35.4743 102.729C35.8641 102.472 36.3006 102.295 36.759 102.207C37.2174 102.119 37.6887 102.122 38.146 102.216C38.6032 102.31 39.0374 102.493 39.4239 102.755C39.9219 102.02 40.6769 101.498 41.5403 101.292C42.4037 101.086 43.3129 101.211 44.0892 101.641C43.7158 101.284 43.2689 101.012 42.7798 100.845C42.2906 100.679 41.7709 100.621 41.257 100.675C40.7431 100.73 40.2474 100.897 39.8044 101.163C39.3614 101.429 38.9818 101.789 38.6922 102.217C37.9129 101.739 36.9798 101.581 36.0865 101.773C35.1933 101.966 34.4086 102.495 33.8953 103.251C33.3821 104.007 33.1798 104.932 33.3305 105.833C33.4812 106.735 33.9732 107.543 34.7044 108.091L35.0343 108.326C34.4025 107.75 33.9993 106.966 33.8989 106.117C33.7984 105.268 34.0073 104.411 34.4873 103.704Z" fill="white"/>
</g>
<g opacity="0.5">
<path opacity="0.5" d="M81.7748 80.0241C80.5455 78.7293 78.8647 77.9578 77.0815 77.8698C75.2983 77.7817 73.5497 78.3839 72.1988 79.5513C70.8479 80.7186 69.9986 82.3614 69.8271 84.1385C69.6557 85.9157 70.1754 87.6906 71.2782 89.0946L80.3487 99.5912L90.8453 90.5207C91.584 89.9405 92.1973 89.2165 92.6481 88.3925C93.0988 87.5684 93.3777 86.6615 93.4679 85.7266C93.5581 84.7917 93.4577 83.8482 93.1728 82.9532C92.8878 82.0582 92.4242 81.2303 91.8101 80.5196C91.196 79.8089 90.444 79.2302 89.5998 78.8185C88.7556 78.4068 87.8366 78.1706 86.8985 78.1243C85.9604 78.078 85.0226 78.2225 84.1419 78.549C83.2612 78.8755 82.4559 79.3774 81.7748 80.0241Z" fill="#5ECE7B"/>
<path opacity="0.2" d="M73.0921 80.71C73.7816 80.113 74.5819 79.6576 75.4474 79.37C76.3129 79.0823 77.2266 78.968 78.1363 79.0335C79.046 79.099 79.9338 79.3431 80.7492 79.7518C81.5645 80.1605 82.2914 80.7258 82.8882 81.4155C84.1998 80.2808 85.8884 79.6779 87.622 79.7255C89.3556 79.773 91.0087 80.4676 92.2561 81.6725C91.7321 80.8093 91.026 80.0709 90.1872 79.5088C89.3484 78.9466 88.397 78.5744 87.3994 78.418C86.4018 78.2615 85.3821 78.3247 84.4115 78.6031C83.4408 78.8815 82.5426 79.3683 81.7796 80.0297C81.1994 79.291 80.4754 78.6778 79.6514 78.227C78.8274 77.7762 77.9205 77.4973 76.9855 77.4071C76.0506 77.3169 75.1071 77.4173 74.2121 77.7023C73.3171 77.9872 72.4892 78.4508 71.7785 79.0649C71.0678 79.679 70.4891 80.431 70.0774 81.2752C69.6657 82.1194 69.4295 83.0384 69.3832 83.9765C69.3369 84.9147 69.4814 85.8524 69.8079 86.7331C70.1345 87.6138 70.6363 88.4191 71.283 89.1002L71.7869 89.71C70.8857 88.3037 70.5215 86.6196 70.7612 84.9666C71.0009 83.3136 71.8285 81.8023 73.0921 80.71Z" fill="white"/>
</g>
<path d="M83.2289 29.6833L51.3333 8.41959C50.8965 8.12818 50.3832 7.97266 49.8581 7.97266C49.3331 7.97266 48.8197 8.12818 48.383 8.41959L16.4874 29.6833C16.1233 29.9263 15.8248 30.2553 15.6184 30.6414C15.4121 31.0274 15.3043 31.4584 15.3046 31.8961V66.4496C15.3046 67.8595 15.8646 69.2117 16.8616 70.2086C17.8585 71.2055 19.2106 71.7656 20.6205 71.7656H79.0958C80.5056 71.7656 81.8578 71.2055 82.8547 70.2086C83.8516 69.2117 84.4117 67.8595 84.4117 66.4496V31.8961C84.412 31.4584 84.3042 31.0274 84.0978 30.6414C83.8915 30.2553 83.593 29.9263 83.2289 29.6833ZM39.4655 50.5019L20.6205 63.7917V37.0559L39.4655 50.5019ZM44.9043 53.1598H54.8119L73.627 66.4496H26.0893L44.9043 53.1598ZM60.2508 50.5019L79.0958 37.0559V63.7917L60.2508 50.5019ZM49.8581 13.8252L77.0724 31.9692L54.8119 47.8439H44.911L22.6505 31.9692L49.8581 13.8252Z" fill="#5ECE7B"/>
</svg>
