<svg width="25" height="25" viewBox="0 0 25 25" fill="none" xmlns="http://www.w3.org/2000/svg">
<path d="M3.49933 18.0829H15.9993C16.1894 18.083 16.3723 18.1552 16.5111 18.2849C16.65 18.4146 16.7344 18.5922 16.7474 18.7818C16.7603 18.9714 16.7008 19.1588 16.5809 19.3062C16.461 19.4536 16.2896 19.55 16.1013 19.5759L15.9993 19.5829H3.49933C3.30795 19.5849 3.12307 19.5136 2.98254 19.3837C2.84202 19.2537 2.75648 19.075 2.74344 18.8841C2.73041 18.6931 2.79086 18.5044 2.91242 18.3566C3.03399 18.2088 3.20746 18.113 3.39733 18.0889L3.49933 18.0829H15.9993H3.49933ZM3.49933 11.5829H21.9993C22.1894 11.583 22.3723 11.6552 22.5111 11.7849C22.65 11.9146 22.7344 12.0922 22.7474 12.2818C22.7603 12.4714 22.7008 12.6588 22.5809 12.8062C22.461 12.9536 22.2896 13.05 22.1013 13.0759L21.9993 13.0829H3.49933C3.3093 13.0829 3.12639 13.0107 2.98754 12.881C2.84868 12.7512 2.76425 12.5736 2.7513 12.3841C2.73835 12.1945 2.79784 12.007 2.91776 11.8596C3.03768 11.7122 3.20908 11.6158 3.39733 11.5899L3.49933 11.5829H21.9993H3.49933ZM3.49933 5.08594H18.9993C19.1894 5.086 19.3723 5.15818 19.5111 5.28791C19.65 5.41764 19.7344 5.59524 19.7474 5.78482C19.7603 5.9744 19.7008 6.16183 19.5809 6.30924C19.461 6.45664 19.2896 6.55304 19.1013 6.57894L18.9993 6.58594H3.49933C3.3093 6.58588 3.12639 6.51369 2.98754 6.38397C2.84868 6.25424 2.76425 6.07664 2.7513 5.88706C2.73835 5.69748 2.79784 5.51005 2.91776 5.36264C3.03768 5.21523 3.20908 5.11884 3.39733 5.09294L3.49933 5.08594H18.9993H3.49933Z" fill="black"/>
</svg>
