<svg width="36" height="34" viewBox="0 0 36 34" fill="none" xmlns="http://www.w3.org/2000/svg">
<path d="M18.2428 1C18.4273 1.28236 18.5663 1.59185 18.655 1.91727C18.6945 2.54986 18.7009 3.18411 18.6743 3.81738H17.3485C17.3485 3.05368 17.3248 2.2771 17.3666 1.50375C17.376 1.33005 17.6142 1.16762 17.747 1H18.2428Z" fill="#396EB5" stroke="#396EB5" stroke-width="0.35" stroke-miterlimit="10"/>
<path d="M6.36403 15.3193C6.36403 14.862 6.35041 14.4323 6.36781 14.0037C6.3612 13.9066 6.3761 13.8093 6.41139 13.7186C6.44669 13.6279 6.50153 13.5461 6.57204 13.479C6.64254 13.4119 6.72696 13.3612 6.81929 13.3305C6.91162 13.2997 7.0096 13.2897 7.10625 13.3011C10.3185 13.3234 13.5329 13.4628 16.5181 14.7136C16.9726 14.9373 17.472 15.0547 17.9786 15.057C18.4851 15.0592 18.9856 14.9462 19.442 14.7265C22.4232 13.4674 25.6381 13.3243 28.8508 13.3001C28.9522 13.287 29.0552 13.2967 29.1524 13.3284C29.2496 13.3602 29.3385 13.4132 29.4126 13.4836C29.4867 13.554 29.5443 13.6401 29.5809 13.7355C29.6176 13.8309 29.6326 13.9333 29.6247 14.0352C29.6346 14.2517 29.6275 14.4689 29.6278 14.6857C29.6281 14.8797 29.6279 15.0737 29.6279 15.3595C29.9737 15.3595 30.2742 15.3478 30.5733 15.3615C31.7942 15.4176 32.3648 15.9901 32.3651 17.1539C32.3659 21.3923 32.3659 25.6306 32.3651 29.869C32.3649 31.1333 31.7986 31.6812 30.4241 31.6871C27.5328 31.6994 24.6413 31.6786 21.7503 31.7079C21.3775 31.7225 21.0184 31.8519 20.7219 32.0783C19.9339 32.6799 18.969 33.0039 17.9777 32.9999C16.9863 32.9959 16.0241 32.6641 15.241 32.0562C14.9611 31.841 14.6209 31.7189 14.2681 31.7069C11.4183 31.6799 8.56815 31.6983 5.71822 31.683C5.30846 31.6916 4.90041 31.6276 4.51305 31.4937C4.24373 31.4029 4.01127 31.2269 3.85078 30.9923C3.6903 30.7577 3.61049 30.4773 3.62343 30.1934C3.62577 25.7579 3.6273 21.3224 3.62798 16.8868C3.62505 16.6938 3.66034 16.5021 3.73183 16.3227C3.80331 16.1433 3.90958 15.9799 4.04451 15.8417C4.17944 15.7036 4.34035 15.5936 4.51799 15.5179C4.69563 15.4422 4.88649 15.4024 5.07957 15.4009C5.4815 15.3459 5.89189 15.3474 6.36403 15.3193ZM17.3146 28.1407V18.0966C17.3146 16.274 17.3076 16.2632 15.4694 15.6831C13.5121 15.1007 11.4872 14.776 9.44597 14.7174C8.88131 14.6913 8.3142 14.7134 7.77232 14.7134V26.9886C10.9901 26.9477 14.199 27.3352 17.3146 28.1407ZM18.6745 28.139C21.7944 27.3378 25.006 26.9491 28.227 26.9828V14.6188C27.0362 14.6975 25.8855 14.7391 24.7435 14.857C22.8933 14.9866 21.0771 15.4207 19.3682 16.1416C19.1435 16.2121 18.9501 16.358 18.8206 16.5547C18.6911 16.7513 18.6335 16.9866 18.6575 17.2209C18.6978 19.6053 18.6745 21.9908 18.6745 24.3759V28.139ZM6.36089 16.729C4.98934 16.5979 4.98931 16.5979 4.9893 17.791C4.9893 21.7341 5.00291 25.6773 4.97469 29.6202C4.97044 30.2141 5.13078 30.3979 5.76216 30.3919C8.7361 30.3635 11.7105 30.3854 14.6847 30.3733C14.9061 30.3588 15.1281 30.3931 15.3348 30.4736C15.5416 30.5542 15.7281 30.6792 15.8813 30.8397C16.4439 31.3899 17.1988 31.6991 17.9856 31.7018C18.7725 31.7045 19.5295 31.4004 20.0958 30.8541C20.2559 30.6864 20.4512 30.5563 20.6676 30.4731C20.884 30.3899 21.1161 30.3557 21.3473 30.373C24.3008 30.3859 27.2545 30.3665 30.2079 30.39C30.8056 30.3948 31.023 30.2651 31.018 29.6402C30.986 25.6579 31.0017 21.6753 31.0017 17.6928C31.0017 16.6122 31.0016 16.6117 29.8725 16.6913C29.7896 16.7066 29.7078 16.7279 29.6279 16.755V17.4356C29.6279 20.6689 29.6278 23.9022 29.6277 27.1356C29.6275 28.1413 29.4825 28.2684 28.4032 28.2983C27.165 28.3327 25.9238 28.3435 24.6902 28.4392C22.5037 28.4972 20.3429 28.9256 18.2997 29.7062C18.0454 29.7598 17.7809 29.7364 17.5401 29.6388C16.7297 29.4153 15.9412 29.1058 15.1202 28.9341C12.603 28.4647 10.0449 28.2497 7.48467 28.2921C6.53561 28.2867 6.36175 28.1104 6.3614 27.2168C6.36014 23.9638 6.35996 20.7107 6.36086 17.4577C6.36086 17.2255 6.36089 16.9933 6.36089 16.729Z" fill="#396EB5" stroke="#396EB5" stroke-width="0.35" stroke-miterlimit="10"/>
<path d="M14.3712 11.9629C14.2041 12.1118 14.0296 12.376 13.7874 12.4581C13.7051 12.4876 13.6173 12.4991 13.5301 12.4918C13.4429 12.4844 13.3583 12.4584 13.282 12.4154C13.2058 12.3725 13.1397 12.3136 13.0882 12.2429C13.0368 12.1721 13.0011 12.091 12.9838 12.0053C12.6418 11.0157 12.3018 10.0256 11.9636 9.03488C11.3382 7.20266 10.7138 5.37014 10.0903 3.53735C10.0521 3.42519 10.0087 3.31452 9.97419 3.20135C9.84268 2.7706 9.90204 2.39166 10.4037 2.24655C10.8788 2.10914 11.1395 2.39114 11.2762 2.78704C11.6954 4.00088 12.1099 5.21616 12.5198 6.43292C13.0782 8.07924 13.6352 9.72599 14.1908 11.3732C14.2412 11.5222 14.2831 11.6738 14.3712 11.9629Z" fill="#396EB5" stroke="#396EB5" stroke-width="0.35" stroke-miterlimit="10"/>
<path d="M22.5437 12.4945C21.7865 12.4745 21.557 12.0606 21.7658 11.4382C22.237 10.0337 22.7191 8.6324 23.1975 7.23004C23.6887 5.79027 24.1841 4.35183 24.6705 2.91058C24.815 2.48245 25.0157 2.12243 25.5745 2.23751C26.0191 2.32905 26.1607 2.72372 25.9659 3.30081C25.0052 6.14566 24.0471 8.99138 23.0595 11.8277C22.9285 12.0788 22.7538 12.3046 22.5437 12.4945Z" fill="#396EB5" stroke="#396EB5" stroke-width="0.35" stroke-miterlimit="10"/>
<path d="M6.0403 6.32312C7.21013 7.89193 8.33647 9.39098 9.44688 10.9007C9.50344 10.966 9.54434 11.0434 9.56645 11.1269C9.58855 11.2104 9.59126 11.2979 9.57441 11.3827C9.55756 11.4674 9.52157 11.5472 9.46919 11.6159C9.41681 11.6846 9.34945 11.7404 9.2722 11.7791C9.20232 11.833 9.12214 11.872 9.0366 11.8936C8.95107 11.9152 8.862 11.9191 8.77491 11.9049C8.68783 11.8908 8.60459 11.8589 8.53032 11.8113C8.45604 11.7637 8.39233 11.7013 8.34312 11.6281C7.39652 10.3887 6.46611 9.13795 5.53819 7.88568C5.50631 7.84113 5.48453 7.79019 5.47435 7.73636C5.46417 7.68253 5.46582 7.62712 5.47923 7.57401C5.63858 7.17785 5.82642 6.79206 6.0403 6.32312Z" fill="#396EB5" stroke="#396EB5" stroke-width="0.35" stroke-miterlimit="10"/>
<path d="M29.9544 6.32166C30.1559 6.77566 30.332 7.13065 30.4666 7.49942C30.4893 7.5672 30.4973 7.63903 30.4901 7.71014C30.4828 7.78126 30.4605 7.85001 30.4245 7.9118C29.5272 9.13647 28.6196 10.3543 27.7017 11.5652C27.6535 11.6509 27.5871 11.725 27.5073 11.7824C27.4275 11.8398 27.3361 11.8791 27.2395 11.8975C27.1429 11.9159 27.0435 11.913 26.9481 11.8889C26.8528 11.8649 26.7638 11.8204 26.6875 11.7584C26.6103 11.7101 26.545 11.6449 26.4967 11.5677C26.4484 11.4905 26.4183 11.4033 26.4086 11.3127C26.399 11.2221 26.4101 11.1305 26.4411 11.0449C26.472 10.9592 26.5221 10.8817 26.5875 10.8182C27.6842 9.34566 28.788 7.87799 29.9544 6.32166Z" fill="#396EB5" stroke="#396EB5" stroke-width="0.35" stroke-miterlimit="10"/>
<path d="M29.4535 4.552C29.9801 4.41382 30.4799 4.18869 30.9323 3.88589C31.2841 3.38788 31.5543 2.83691 31.7326 2.25378C31.7852 2.84454 32.039 3.39935 32.4517 3.82535C32.8643 4.25135 33.4108 4.5227 33.9996 4.59406C33.4251 4.65797 32.8879 4.91008 32.4717 5.3111C32.0555 5.71212 31.7836 6.23955 31.6983 6.81122C31.6136 6.24437 31.3341 5.72475 30.9078 5.34171C30.4814 4.95866 29.935 4.73613 29.3623 4.7124L29.4535 4.552Z" fill="#396EB5" stroke="#396EB5" stroke-width="0.35" stroke-miterlimit="10"/>
<path d="M4.31979 6.80106C4.22176 6.23294 3.94307 5.71161 3.52515 5.31448C3.10723 4.91736 2.57238 4.66565 2 4.59671C2.57536 4.53023 3.11223 4.27418 3.526 3.8689C3.93977 3.46362 4.20689 2.93213 4.28528 2.35828C4.38807 2.92936 4.66999 3.45291 5.09018 3.85309C5.51037 4.25326 6.04702 4.50929 6.62244 4.58411C6.05075 4.65558 5.51755 4.91013 5.10251 5.30972C4.68747 5.70932 4.41289 6.23249 4.31979 6.80106Z" fill="#396EB5" stroke="#396EB5" stroke-width="0.35" stroke-miterlimit="10"/>
<path d="M15.7246 7.37231C16.2824 7.29561 16.8013 7.04323 17.206 6.65179C17.6107 6.26036 17.8802 5.75023 17.9755 5.19531C18.0854 5.75312 18.3677 6.26232 18.7824 6.65118C19.1972 7.04004 19.7235 7.28893 20.2872 7.36273C19.7255 7.43562 19.2016 7.68566 18.7917 8.07654C18.3817 8.46741 18.107 8.97876 18.0075 9.53638C17.9022 8.98174 17.625 8.4743 17.2153 8.08591C16.8056 7.69751 16.2841 7.44787 15.7246 7.37231Z" fill="#396EB5" stroke="#396EB5" stroke-width="0.35" stroke-miterlimit="10"/>
<path d="M17.3267 10.9056H18.6596C18.6885 11.6426 18.6787 12.3805 18.63 13.1164C18.5799 13.255 18.4972 13.3796 18.3889 13.4796C18.2806 13.5796 18.1499 13.6521 18.0078 13.6911C17.9224 13.7109 17.8335 13.7101 17.7485 13.6889C17.6634 13.6676 17.5847 13.6265 17.5187 13.5688C17.4526 13.5111 17.4013 13.4386 17.3688 13.3572C17.3363 13.2758 17.3236 13.1878 17.3318 13.1006C17.3139 12.3746 17.3267 11.6479 17.3267 10.9056Z" fill="#396EB5" stroke="#396EB5" stroke-width="0.35" stroke-miterlimit="10"/>
</svg>
