<svg width="22" height="22" viewBox="0 0 22 22" fill="none" xmlns="http://www.w3.org/2000/svg">
<path d="M15.8 18.2439L13 22L10.2 18.2439H5C4.73478 18.2439 4.48043 18.1308 4.29289 17.9296C4.10536 17.7283 4 17.4554 4 17.1707V5.47639C4 5.19177 4.10536 4.9188 4.29289 4.71754C4.48043 4.51629 4.73478 4.40322 5 4.40322H21C21.2652 4.40322 21.5196 4.51629 21.7071 4.71754C21.8946 4.9188 22 5.19177 22 5.47639V17.1707C22 17.4554 21.8946 17.7283 21.7071 17.9296C21.5196 18.1308 21.2652 18.2439 21 18.2439H15.8ZM1 0H18V2.14634H2V13.9512H0V1.07317C0 0.788548 0.105357 0.515583 0.292893 0.314324C0.48043 0.113066 0.734784 0 1 0Z" fill="#F8F8F8"/>
</svg>
