<svg width="18" height="19" viewBox="0 0 18 19" fill="none" xmlns="http://www.w3.org/2000/svg">
<path d="M12.6603 18.0254C12.6603 18.2077 12.5878 18.3826 12.4589 18.5115C12.33 18.6405 12.1551 18.7129 11.9728 18.7129H6.47275C6.29042 18.7129 6.11555 18.6405 5.98662 18.5115C5.85769 18.3826 5.78525 18.2077 5.78525 18.0254C5.78525 17.8431 5.85769 17.6682 5.98662 17.5393C6.11555 17.4103 6.29042 17.3379 6.47275 17.3379H11.9728C12.1551 17.3379 12.33 17.4103 12.4589 17.5393C12.5878 17.6682 12.6603 17.8431 12.6603 18.0254ZM17.288 15.2754C17.1687 15.4855 16.9955 15.66 16.7863 15.7809C16.5771 15.9017 16.3394 15.9646 16.0978 15.9629H2.34775C2.10604 15.9626 1.86869 15.8985 1.65962 15.7772C1.45054 15.6559 1.27713 15.4817 1.15687 15.272C1.03661 15.0623 0.973751 14.8247 0.974618 14.583C0.975486 14.3412 1.04005 14.104 1.16182 13.8952C1.63877 13.0737 2.34775 10.7499 2.34775 7.71289C2.34775 5.88953 3.07208 4.14084 4.3614 2.85153C5.65071 1.56222 7.39939 0.837891 9.22275 0.837891C11.0461 0.837891 12.7948 1.56222 14.0841 2.85153C15.3734 4.14084 16.0978 5.88953 16.0978 7.71289C16.0978 10.7491 16.8076 13.0737 17.2845 13.8952C17.4075 14.1043 17.4726 14.3424 17.473 14.585C17.4735 14.8275 17.4093 15.0658 17.2871 15.2754H17.288ZM16.0978 14.5879C15.4335 13.4475 14.7228 10.8109 14.7228 7.71289C14.7228 6.2542 14.1433 4.85525 13.1118 3.8238C12.0804 2.79235 10.6814 2.21289 9.22275 2.21289C7.76406 2.21289 6.36512 2.79235 5.33367 3.8238C4.30222 4.85525 3.72275 6.2542 3.72275 7.71289C3.72275 10.8118 3.01119 13.4484 2.34775 14.5879H16.0978Z" fill="black"/>
</svg>
