<svg width="25" height="25" viewBox="0 0 25 25" fill="none" xmlns="http://www.w3.org/2000/svg">
<path d="M12.7493 12.082C15.5107 12.082 17.7493 9.84346 17.7493 7.08203C17.7493 4.32061 15.5107 2.08203 12.7493 2.08203C9.98784 2.08203 7.74927 4.32061 7.74927 7.08203C7.74927 9.84346 9.98784 12.082 12.7493 12.082Z" stroke="black" stroke-width="1.2"/>
<path d="M17.7493 14.082H18.1013C18.8324 14.0822 19.5382 14.3494 20.0862 14.8333C20.6342 15.3172 20.9867 15.9846 21.0773 16.71L21.4683 19.834C21.5035 20.1155 21.4784 20.4012 21.3947 20.6721C21.311 20.9431 21.1707 21.1932 20.983 21.4058C20.7952 21.6184 20.5644 21.7887 20.3059 21.9052C20.0473 22.0218 19.7669 22.0821 19.4833 22.082H6.01533C5.73171 22.0821 5.45132 22.0218 5.19277 21.9052C4.93423 21.7887 4.70343 21.6184 4.5157 21.4058C4.32798 21.1932 4.18762 20.9431 4.10393 20.6721C4.02025 20.4012 3.99516 20.1155 4.03033 19.834L4.42033 16.71C4.51102 15.9843 4.86374 15.3166 5.41216 14.8327C5.96058 14.3487 6.66691 14.0818 7.39833 14.082H7.74933" stroke="black" stroke-width="1.2" stroke-linecap="round" stroke-linejoin="round"/>
</svg>
