<svg width="20" height="21" viewBox="0 0 20 21" fill="none" xmlns="http://www.w3.org/2000/svg">
<path d="M10.0064 0.841797C13.4107 0.841797 16.1801 3.50142 16.1801 6.77069C16.1801 8.98722 14.9104 10.9262 13.0647 11.924C16.8149 13.0876 19.5844 16.246 19.9304 20.18C20.0457 21.1771 18.0838 21.2329 18.0266 20.2908C17.6224 16.3568 14.1029 13.3649 10.0064 13.3649C5.85197 13.3649 2.39053 16.3568 1.9863 20.2908C1.87095 21.2329 -0.0909367 21.1771 0.0244237 20.18C0.428583 16.3011 3.19788 13.0876 6.89012 11.924C5.0436 10.927 3.77468 8.98701 3.77468 6.77069C3.77468 3.50142 6.60214 0.841797 10.0064 0.841797ZM10.0064 2.72588C7.64118 2.72588 5.73652 4.55417 5.73652 6.77053C5.73652 9.04197 7.6403 10.8711 10.0064 10.8711C12.3145 10.8711 14.2181 9.04281 14.2181 6.77053C14.2181 4.55401 12.3143 2.72588 10.0064 2.72588Z" fill="#B7B7B7"/>
</svg>
