<svg width="32" height="32" viewBox="0 0 32 32" fill="none" xmlns="http://www.w3.org/2000/svg">
<path d="M7.94839 22.1983C7.94839 24.8075 7.94839 27.4065 7.94839 30.0157C7.9727 30.2732 7.9727 30.5327 7.94839 30.7903C7.90209 31.1311 7.73718 31.4425 7.48493 31.6654C7.23268 31.8882 6.91061 32.0072 6.57969 31.9997C6.24876 31.9921 5.93199 31.8586 5.68936 31.6245C5.44674 31.3903 5.2951 31.0717 5.26318 30.7291C5.15538 29.7099 5.10639 28.6907 5.03779 27.6205L4.65559 21.7091C4.65559 21.2403 4.46939 20.8836 3.96959 20.8937C3.46979 20.9039 3.32279 21.281 3.29339 21.7397C3.12679 24.4916 2.95039 27.2332 2.77399 29.9851C2.77399 30.138 2.77399 30.2908 2.77399 30.4437C2.77804 30.6452 2.74272 30.8454 2.67015 31.0322C2.59759 31.219 2.48929 31.3886 2.35183 31.5306C2.21438 31.6726 2.05063 31.7841 1.87051 31.8583C1.69039 31.9325 1.49766 31.9679 1.30399 31.9623C1.11601 31.954 0.931726 31.9052 0.762772 31.8191C0.593818 31.733 0.443847 31.6114 0.322313 31.462C0.200779 31.3127 0.110319 31.1387 0.056632 30.9512C0.00294482 30.7636 -0.0128027 30.5666 0.0103804 30.3724C0.0103804 24.4134 0.0103804 18.4477 0.0103804 12.4751C0.00736027 12.1042 0.0770291 11.7365 0.215125 11.3945C0.353222 11.0524 0.556856 10.7432 0.813614 10.4857C1.07037 10.2283 1.37487 10.0278 1.70854 9.89675C2.04221 9.76566 2.39806 9.70663 2.75438 9.72325C5.50819 9.72325 8.262 9.72325 11.0158 9.72325C11.4195 9.70082 11.8109 9.57098 12.1526 9.34615C13.2208 8.67348 14.24 7.90906 15.2984 7.216C15.5756 7.01312 15.9187 6.93249 16.2528 6.99168C16.5869 7.05087 16.885 7.24508 17.082 7.53195C17.2815 7.79858 17.3789 8.13265 17.3553 8.4696C17.3318 8.80656 17.189 9.12249 16.9546 9.35634C16.8436 9.45692 16.7257 9.5489 16.6018 9.63153C15.3964 10.4775 14.2008 11.354 12.966 12.1592C12.59 12.3803 12.1717 12.5125 11.741 12.5465C11.0158 12.6076 10.2808 12.5465 9.55559 12.5465C8.49719 12.5465 8.02679 13.0459 8.02679 14.1364C7.93859 16.8169 7.94839 19.5076 7.94839 22.1983Z" fill="#396EB5"/>
<path d="M30.6551 17.9788C31.7723 18.3967 32.1643 18.998 31.9389 19.8236C31.8785 20.099 31.7343 20.3469 31.5278 20.5305C31.3213 20.7141 31.0634 20.8236 30.7923 20.8428C30.6259 20.8531 30.459 20.8531 30.2925 20.8428H10.6925V18.0502H27.9797V2.76206H10.6337V0H28.8715C30.2141 0 30.6453 0.438267 30.6453 1.82439L30.6551 17.9788Z" fill="#396EB5"/>
<path d="M1.9357 4.86624C1.93564 4.46013 2.01552 4.05808 2.17065 3.68356C2.32577 3.30903 2.55305 2.96953 2.83922 2.68487C3.12539 2.40021 3.46472 2.1761 3.8374 2.02561C4.21008 1.87513 4.60865 1.80128 5.00984 1.80839C5.80175 1.84806 6.54827 2.19438 7.09489 2.77568C7.64151 3.35697 7.94636 4.12874 7.94636 4.93122C7.94636 5.7337 7.64151 6.50545 7.09489 7.08675C6.54827 7.66805 5.80175 8.01437 5.00984 8.05404C4.59761 8.06172 4.1882 7.98393 3.80679 7.82546C3.42539 7.66698 3.08007 7.43116 2.79209 7.13253C2.50412 6.83391 2.27958 6.4788 2.1323 6.08904C1.98502 5.69929 1.91811 5.28314 1.9357 4.86624Z" fill="#396EB5"/>
</svg>
