<svg width="23" height="20" viewBox="0 0 23 20" fill="none" xmlns="http://www.w3.org/2000/svg">
<path d="M17.1465 4.34239C16.1437 1.68381 13.9879 0 10.7315 0C6.588 0 3.68896 3.07342 3.43981 7.0832C1.44213 7.72145 0 9.75722 0 12.0631C0 14.8858 2.2213 17.2703 4.84994 17.2703H6.92742C7.32436 17.2703 7.64652 16.9485 7.64652 16.552C7.64652 16.1551 7.32436 15.8337 6.92742 15.8337H4.84994C3.00042 15.8337 1.41552 14.1071 1.41552 12.0631C1.41552 10.2568 2.6833 8.62727 4.27358 8.3543L4.92617 8.24188L4.86828 7.58352L4.86288 7.57526C4.86288 4.07622 7.16796 1.43704 10.7315 1.43704C13.5877 1.43704 15.1924 2.84283 15.9345 5.24066L16.0884 5.73523L16.6065 5.74637C19.2779 5.8024 21.62 7.9675 21.62 10.6573C21.62 13.1054 19.9959 15.8337 17.537 15.8337H15.8939C15.4969 15.8337 15.1748 16.1555 15.1748 16.552C15.1748 16.9489 15.4969 17.2704 15.8939 17.2704L17.5316 17.2682C21.1271 17.1734 23 13.7423 23 10.6574C23 7.34151 20.3987 4.69191 17.1465 4.34244L17.1465 4.34239ZM12.0445 10.0661C12.0406 10.0618 12.0391 10.0582 12.0366 10.0546L11.8547 9.86457C11.7551 9.75933 11.6224 9.70725 11.4897 9.70797C11.357 9.70689 11.2251 9.75933 11.1237 9.86455L10.9418 10.0545C10.9382 10.0581 10.9374 10.0625 10.9342 10.0661L8.33863 12.9337C8.13764 13.1434 8.13764 13.4829 8.33863 13.6933L8.51984 13.8161C8.72085 14.0259 9.04658 13.958 9.24721 13.7483L10.7778 12.0437V19.2817C10.7778 19.6782 11.1 20 11.4969 20C11.8939 20 12.216 19.6782 12.216 19.2817V12.0505L13.7973 13.7931C13.9983 14.0029 14.3234 14.0708 14.524 13.861L14.7052 13.7382C14.9062 13.5277 14.9062 13.1883 14.7052 12.9786L12.0445 10.0661Z" fill="#396EB5"/>
</svg>
